<svg width="184" height="43" viewBox="0 0 184 43" fill="none" xmlns="http://www.w3.org/2000/svg">
<path d="M171.362 15.4448H174.658L174.787 17.2778C175.216 16.5847 175.748 16.0558 176.383 15.691C177.035 15.308 177.756 15.1165 178.546 15.1165C181.756 15.1165 183.353 17.2049 183.336 21.3818V22.1205H183.361V29.1245H179.885V22.1205H179.859C179.859 20.8072 179.645 19.8952 179.216 19.3845C178.804 18.8556 178.203 18.5911 177.413 18.5911C176.572 18.5911 175.928 18.8829 175.482 19.4666C175.053 20.032 174.838 20.8528 174.838 21.929V29.1245H171.362V15.4448Z" fill="#57596C"/>
<path d="M162.451 29.4528C161.147 29.4528 159.979 29.1518 158.949 28.5499C157.919 27.9298 157.113 27.0816 156.529 26.0055C155.962 24.9111 155.679 23.6708 155.679 22.2846C155.679 20.8984 155.962 19.6672 156.529 18.5911C157.113 17.4967 157.911 16.6486 158.924 16.0467C159.937 15.4265 161.095 15.1165 162.4 15.1165C163.705 15.1165 164.863 15.4265 165.876 16.0467C166.906 16.6486 167.704 17.4967 168.271 18.5911C168.855 19.6672 169.146 20.8984 169.146 22.2846C169.146 23.6708 168.863 24.9111 168.297 26.0055C167.73 27.0816 166.932 27.9298 165.902 28.5499C164.889 29.1518 163.739 29.4528 162.451 29.4528ZM159.258 22.2846C159.258 23.3972 159.55 24.3092 160.134 25.0206C160.735 25.7137 161.507 26.0602 162.451 26.0602C163.378 26.0602 164.134 25.7137 164.717 25.0206C165.301 24.3092 165.593 23.3972 165.593 22.2846C165.593 21.172 165.293 20.2691 164.692 19.576C164.108 18.8647 163.344 18.509 162.4 18.509C161.49 18.509 160.735 18.8647 160.134 19.576C159.55 20.2691 159.258 21.172 159.258 22.2846Z" fill="#57596C"/>
<path d="M149.791 15.4448H153.267V29.1245H149.791V15.4448ZM151.542 13.2834C150.992 13.2834 150.52 13.0737 150.125 12.6542C149.731 12.2347 149.533 11.7422 149.533 11.1768C149.533 10.5931 149.731 10.0915 150.125 9.67199C150.537 9.25248 151.01 9.04272 151.542 9.04272C152.074 9.04272 152.537 9.25248 152.932 9.67199C153.327 10.0915 153.524 10.5931 153.524 11.1768C153.524 11.7422 153.327 12.2347 152.932 12.6542C152.555 13.0737 152.091 13.2834 151.542 13.2834Z" fill="#57596C"/>
<path d="M144.53 29.4529C143.105 29.4529 142.015 29.0789 141.26 28.3311C140.522 27.5833 140.153 26.5072 140.153 25.1027V18.5638H138.093V15.4448H140.153V11.1768H143.629V15.4448H146.822V18.5638H143.629V24.2819C143.629 24.8838 143.741 25.3307 143.964 25.6225C144.204 25.8961 144.565 26.0329 145.045 26.0329C145.389 26.0329 145.775 25.8688 146.204 25.5405L147.44 28.3038C147.011 28.6503 146.539 28.9239 146.024 29.1245C145.509 29.3434 145.011 29.4529 144.53 29.4529Z" fill="#57596C"/>
<path d="M133.144 27.565C132.423 28.8235 131.238 29.4528 129.59 29.4528C128.045 29.4528 126.844 29.088 125.985 28.3584C125.144 27.6288 124.724 26.5983 124.724 25.2668C124.724 23.8259 125.179 22.7315 126.088 21.9837C126.998 21.2358 128.286 20.8619 129.951 20.8619H133.015C132.775 19.1657 131.994 18.3175 130.672 18.3175C129.539 18.3175 128.681 18.8282 128.097 19.8496L125.033 18.7279C125.445 17.7065 126.114 16.8492 127.041 16.1561C127.985 15.463 129.196 15.1165 130.672 15.1165C132.595 15.1165 134.054 15.691 135.049 16.8401C136.045 17.971 136.526 19.5396 136.491 21.5459L136.44 29.1245H133.195L133.144 27.565ZM128.277 25.1574C128.277 25.5404 128.449 25.8505 128.792 26.0876C129.135 26.3065 129.608 26.4159 130.208 26.4159C130.741 26.4159 131.221 26.2791 131.65 26.0055C132.097 25.7319 132.449 25.3762 132.706 24.9385C132.964 24.5007 133.092 24.0447 133.092 23.5705H131.187C130.14 23.5705 129.393 23.7073 128.947 23.9809C128.5 24.2363 128.277 24.6284 128.277 25.1574Z" fill="#57596C"/>
<path d="M117.594 29.4528C116.255 29.4528 115.062 29.1518 114.015 28.5499C112.967 27.9298 112.143 27.0816 111.542 26.0055C110.959 24.9111 110.667 23.6708 110.667 22.2846C110.667 20.8984 110.959 19.6672 111.542 18.5911C112.126 17.4967 112.942 16.6486 113.989 16.0467C115.036 15.4265 116.22 15.1165 117.542 15.1165C118.864 15.1165 120.049 15.463 121.096 16.1561C122.16 16.8492 122.933 17.825 123.413 19.0836L120.143 20.3147C119.903 19.7858 119.534 19.3663 119.036 19.0562C118.538 18.7461 117.989 18.5911 117.388 18.5911C116.461 18.5911 115.705 18.9377 115.122 19.6308C114.538 20.3056 114.246 21.1902 114.246 22.2846C114.246 23.3608 114.538 24.2454 115.122 24.9385C115.723 25.6316 116.495 25.9781 117.439 25.9781C118.04 25.9781 118.589 25.814 119.087 25.4857C119.585 25.1391 119.954 24.6831 120.195 24.1177L123.491 25.3489C122.993 26.6439 122.22 27.6562 121.173 28.3858C120.126 29.0971 118.933 29.4528 117.594 29.4528Z" fill="#57596C"/>
<path d="M104.778 15.4448H108.255V29.1245H104.778V15.4448ZM106.53 13.2834C105.98 13.2834 105.508 13.0737 105.113 12.6542C104.718 12.2347 104.521 11.7422 104.521 11.1768C104.521 10.5931 104.718 10.0915 105.113 9.67199C105.525 9.25248 105.997 9.04272 106.53 9.04272C107.062 9.04272 107.525 9.25248 107.92 9.67199C108.315 10.0915 108.512 10.5931 108.512 11.1768C108.512 11.7422 108.315 12.2347 107.92 12.6542C107.542 13.0737 107.079 13.2834 106.53 13.2834Z" fill="#57596C"/>
<path d="M98.1853 9.42578H101.662V29.1246H98.1853V9.42578Z" fill="#57596C"/>
<path d="M82.8491 15.4448H86.1451L86.2739 17.3326C86.703 16.6212 87.2438 16.074 87.8961 15.691C88.5656 15.308 89.3296 15.1165 90.1879 15.1165C91.3552 15.1165 92.3766 15.4083 93.2521 15.992C94.1448 16.5756 94.8229 17.4055 95.2864 18.4817C95.7671 19.5578 96.0074 20.8255 96.0074 22.2846C96.0074 23.7256 95.7671 24.9932 95.2864 26.0876C94.8229 27.1637 94.1448 27.9936 93.2521 28.5773C92.3766 29.161 91.3552 29.4528 90.1879 29.4528C89.3467 29.4528 88.6 29.2704 87.9476 28.9056C87.2953 28.5226 86.7545 27.9845 86.3254 27.2914V34.5964H82.8491V15.4448ZM86.3254 22.2846C86.3254 23.3972 86.6 24.3092 87.1494 25.0206C87.7159 25.7137 88.4369 26.0602 89.3124 26.0602C90.2051 26.0602 90.9432 25.7046 91.5269 24.9932C92.1106 24.2819 92.4024 23.379 92.4024 22.2846C92.4024 21.1902 92.1106 20.2965 91.5269 19.6034C90.9604 18.8921 90.2308 18.5364 89.3381 18.5364C88.4455 18.5364 87.7159 18.8829 87.1494 19.576C86.6 20.2691 86.3254 21.172 86.3254 22.2846Z" fill="#57596C"/>
<path d="M67.3838 15.4448H70.6798L70.8085 17.3326C71.2377 16.6212 71.7785 16.074 72.4308 15.691C73.1003 15.308 73.8642 15.1165 74.7226 15.1165C75.8899 15.1165 76.9113 15.4083 77.7868 15.992C78.6795 16.5756 79.3576 17.4055 79.8211 18.4817C80.3017 19.5578 80.5421 20.8255 80.5421 22.2846C80.5421 23.7256 80.3017 24.9932 79.8211 26.0876C79.3576 27.1637 78.6795 27.9936 77.7868 28.5773C76.9113 29.161 75.8899 29.4528 74.7226 29.4528C73.8814 29.4528 73.1346 29.2704 72.4823 28.9056C71.83 28.5226 71.2892 27.9845 70.86 27.2914V34.5964H67.3838V15.4448ZM70.86 22.2846C70.86 23.3972 71.1347 24.3092 71.684 25.0206C72.2505 25.7137 72.9716 26.0602 73.8471 26.0602C74.7397 26.0602 75.4779 25.7046 76.0616 24.9932C76.6452 24.2819 76.9371 23.379 76.9371 22.2846C76.9371 21.1902 76.6452 20.2965 76.0616 19.6034C75.4951 18.8921 74.7655 18.5364 73.8728 18.5364C72.9801 18.5364 72.2505 18.8829 71.684 19.576C71.1347 20.2691 70.86 21.172 70.86 22.2846Z" fill="#57596C"/>
<path d="M61.225 27.565C60.504 28.8235 59.3195 29.4528 57.6714 29.4528C56.1264 29.4528 54.9248 29.088 54.0664 28.3584C53.2253 27.6288 52.8047 26.5983 52.8047 25.2668C52.8047 23.8259 53.2596 22.7315 54.1694 21.9837C55.0793 21.2358 56.3668 20.8619 58.0319 20.8619H61.0962C60.8559 19.1657 60.0748 18.3175 58.7529 18.3175C57.6199 18.3175 56.7616 18.8282 56.1779 19.8496L53.1137 18.7279C53.5257 17.7065 54.1952 16.8492 55.1222 16.1561C56.0664 15.463 57.2766 15.1165 58.7529 15.1165C60.6756 15.1165 62.1348 15.691 63.1305 16.8401C64.1261 17.971 64.6068 19.5396 64.5725 21.5459L64.521 29.1245H61.2765L61.225 27.565ZM56.3582 25.1574C56.3582 25.5404 56.5299 25.8505 56.8732 26.0876C57.2165 26.3065 57.6886 26.4159 58.2894 26.4159C58.8216 26.4159 59.3023 26.2791 59.7315 26.0055C60.1778 25.7319 60.5297 25.3762 60.7872 24.9385C61.0447 24.5007 61.1735 24.0447 61.1735 23.5705H59.268C58.2208 23.5705 57.474 23.7073 57.0277 23.9809C56.5814 24.2363 56.3582 24.6284 56.3582 25.1574Z" fill="#57596C"/>
<path fill-rule="evenodd" clip-rule="evenodd" d="M17.8864 33.3H9.56843C4.67118 33.3 0.701172 29.33 0.701172 24.4328C0.701172 20.1139 3.99276 16.5638 8.20415 16.1543C8.50107 11.8301 12.1028 8.41455 16.5023 8.41455H16.777C19.1436 8.41455 21.2868 9.37133 22.8407 10.9192C24.9242 9.34687 27.5177 8.41455 30.329 8.41455H30.9537C37.4806 8.41455 42.7717 13.7057 42.7717 20.2326C42.7717 27.4495 36.9212 33.3 29.7042 33.3L17.8864 33.3Z" fill="#57596C"/>
</svg>
