<svg width="162" height="36" viewBox="0 0 162 36" fill="none" xmlns="http://www.w3.org/2000/svg">
<path d="M159.815 16.8291L155.99 17.0792C155.925 16.7318 155.784 16.4192 155.568 16.1413C155.352 15.8564 155.068 15.6306 154.715 15.4639C154.368 15.2902 153.953 15.2034 153.469 15.2034C152.822 15.2034 152.276 15.3493 151.831 15.6411C151.387 15.9259 151.164 16.308 151.164 16.7874C151.164 17.1695 151.308 17.4926 151.596 17.7566C151.884 18.0206 152.377 18.2325 153.077 18.3923L155.804 18.9758C157.268 19.2954 158.36 19.8095 159.08 20.5182C159.799 21.2268 160.158 22.1578 160.158 23.3111C160.158 24.3601 159.867 25.2807 159.285 26.0727C158.71 26.8647 157.919 27.483 156.912 27.9277C155.911 28.3654 154.757 28.5842 153.45 28.5842C151.455 28.5842 149.866 28.143 148.683 27.2607C147.506 26.3714 146.816 25.1626 146.613 23.6341L150.723 23.4049C150.847 24.051 151.148 24.5442 151.625 24.8847C152.103 25.2182 152.714 25.3849 153.459 25.3849C154.192 25.3849 154.78 25.2355 155.225 24.9368C155.676 24.6311 155.905 24.2386 155.911 23.7592C155.905 23.3562 155.745 23.0262 155.431 22.7692C155.117 22.5052 154.633 22.3037 153.979 22.1647L151.37 21.6124C149.899 21.2998 148.804 20.7579 148.085 19.9867C147.372 19.2155 147.015 18.2325 147.015 17.0375C147.015 16.0093 147.277 15.1235 147.8 14.3801C148.33 13.6367 149.072 13.0635 150.027 12.6606C150.988 12.2576 152.112 12.0562 153.401 12.0562C155.303 12.0562 156.801 12.4834 157.893 13.338C158.991 14.1925 159.632 15.3562 159.815 16.8291Z" fill="#57596C"/>
<path d="M144.306 16.8291L140.481 17.0792C140.415 16.7318 140.275 16.4192 140.059 16.1413C139.843 15.8564 139.559 15.6306 139.206 15.4639C138.859 15.2902 138.444 15.2034 137.96 15.2034C137.313 15.2034 136.767 15.3493 136.322 15.6411C135.877 15.9259 135.655 16.308 135.655 16.7874C135.655 17.1695 135.799 17.4926 136.087 17.7566C136.374 18.0206 136.868 18.2325 137.568 18.3923L140.294 18.9758C141.759 19.2954 142.851 19.8095 143.57 20.5182C144.289 21.2268 144.649 22.1578 144.649 23.3111C144.649 24.3601 144.358 25.2807 143.776 26.0727C143.201 26.8647 142.41 27.483 141.403 27.9277C140.402 28.3654 139.248 28.5842 137.94 28.5842C135.946 28.5842 134.357 28.143 133.174 27.2607C131.997 26.3714 131.307 25.1626 131.104 23.6341L135.214 23.4049C135.338 24.051 135.639 24.5442 136.116 24.8847C136.593 25.2182 137.205 25.3849 137.95 25.3849C138.682 25.3849 139.271 25.2355 139.716 24.9368C140.167 24.6311 140.396 24.2386 140.402 23.7592C140.396 23.3562 140.235 23.0262 139.922 22.7692C139.608 22.5052 139.124 22.3037 138.47 22.1647L135.861 21.6124C134.39 21.2998 133.295 20.7579 132.575 19.9867C131.863 19.2155 131.506 18.2325 131.506 17.0375C131.506 16.0093 131.768 15.1235 132.291 14.3801C132.82 13.6367 133.563 13.0635 134.517 12.6606C135.478 12.2576 136.603 12.0562 137.891 12.0562C139.794 12.0562 141.291 12.4834 142.383 13.338C143.482 14.1925 144.123 15.3562 144.306 16.8291Z" fill="#57596C"/>
<path d="M122.13 28.5842C120.58 28.5842 119.246 28.2507 118.128 27.5838C117.016 26.9099 116.16 25.9581 115.558 24.7284C114.957 23.4917 114.656 22.0293 114.656 20.341C114.656 18.6945 114.957 17.2494 115.558 16.0058C116.16 14.7622 117.006 13.793 118.098 13.0983C119.197 12.4035 120.485 12.0562 121.963 12.0562C122.957 12.0562 123.882 12.2264 124.739 12.5668C125.602 12.9003 126.354 13.404 126.994 14.0779C127.642 14.7518 128.145 15.5994 128.505 16.6206C128.865 17.635 129.044 18.823 129.044 20.1847V21.404H116.323V18.6528H125.111C125.111 18.0136 124.981 17.4474 124.719 16.9541C124.457 16.4609 124.095 16.0753 123.63 15.7974C123.173 15.5125 122.64 15.3701 122.032 15.3701C121.397 15.3701 120.835 15.5264 120.345 15.8391C119.861 16.1447 119.481 16.5581 119.207 17.0792C118.932 17.5933 118.792 18.1665 118.785 18.7987V21.4144C118.785 22.2064 118.922 22.8907 119.197 23.4674C119.478 24.044 119.874 24.4887 120.384 24.8013C120.894 25.1139 121.499 25.2703 122.198 25.2703C122.663 25.2703 123.088 25.2008 123.473 25.0618C123.859 24.9229 124.189 24.7145 124.464 24.4366C124.739 24.1587 124.948 23.8182 125.092 23.4153L128.956 23.6862C128.76 24.6728 128.358 25.5343 127.75 26.2707C127.148 27.0002 126.37 27.5699 125.415 27.9798C124.467 28.3827 123.372 28.5842 122.13 28.5842Z" fill="#57596C"/>
<path d="M102.261 19.0175V28.2716H98.0823V12.2646H102.064V15.0887H102.241C102.574 14.1578 103.134 13.4213 103.918 12.8794C104.703 12.3306 105.654 12.0562 106.772 12.0562C107.819 12.0562 108.731 12.2993 109.509 12.7856C110.287 13.272 110.892 13.9667 111.323 14.8699C111.755 15.7661 111.971 16.836 111.971 18.0796V28.2716H107.792V18.8716C107.799 17.892 107.564 17.1278 107.086 16.579C106.609 16.0232 105.952 15.7453 105.115 15.7453C104.552 15.7453 104.055 15.8738 103.624 16.1308C103.199 16.3879 102.865 16.7631 102.623 17.2563C102.388 17.7427 102.267 18.3297 102.261 19.0175Z" fill="#57596C"/>
<path d="M90.5568 28.2715V12.2645H94.7351V28.2715H90.5568ZM92.6558 10.2011C92.0346 10.2011 91.5017 9.9823 91.0571 9.5446C90.619 9.09997 90.3999 8.56848 90.3999 7.95016C90.3999 7.33878 90.619 6.81424 91.0571 6.37655C91.5017 5.93191 92.0346 5.70959 92.6558 5.70959C93.277 5.70959 93.8066 5.93191 94.2447 6.37655C94.6894 6.81424 94.9117 7.33878 94.9117 7.95016C94.9117 8.56848 94.6894 9.09997 94.2447 9.5446C93.8066 9.9823 93.277 10.2011 92.6558 10.2011Z" fill="#57596C"/>
<path d="M87.5825 16.8291L83.7573 17.0792C83.6919 16.7318 83.5513 16.4192 83.3355 16.1413C83.1197 15.8564 82.8353 15.6306 82.4822 15.4639C82.1356 15.2902 81.7204 15.2034 81.2366 15.2034C80.5892 15.2034 80.0432 15.3493 79.5986 15.6411C79.1539 15.9259 78.9316 16.308 78.9316 16.7874C78.9316 17.1695 79.0755 17.4926 79.3632 17.7566C79.6509 18.0206 80.1446 18.2325 80.8442 18.3923L83.5709 18.9758C85.0356 19.2954 86.1276 19.8095 86.8468 20.5182C87.5661 21.2268 87.9258 22.1578 87.9258 23.3111C87.9258 24.3601 87.6348 25.2807 87.0528 26.0727C86.4774 26.8647 85.6862 27.483 84.6792 27.9277C83.6788 28.3654 82.5247 28.5842 81.2169 28.5842C79.2226 28.5842 77.6337 28.143 76.4501 27.2607C75.2732 26.3714 74.5833 25.1626 74.3806 23.6341L78.4903 23.4049C78.6145 24.051 78.9153 24.5442 79.3926 24.8847C79.8699 25.2182 80.4813 25.3849 81.2267 25.3849C81.9591 25.3849 82.5476 25.2355 82.9922 24.9368C83.4434 24.6311 83.6723 24.2386 83.6788 23.7592C83.6723 23.3562 83.5121 23.0262 83.1982 22.7692C82.8843 22.5052 82.4005 22.3037 81.7466 22.1647L79.1376 21.6124C77.6664 21.2998 76.5711 20.7579 75.8518 19.9867C75.1391 19.2155 74.7828 18.2325 74.7828 17.0375C74.7828 16.0093 75.0443 15.1235 75.5674 14.3801C76.0971 13.6367 76.8392 13.0635 77.7939 12.6606C78.7551 12.2576 79.8798 12.0562 81.1679 12.0562C83.0707 12.0562 84.5681 12.4834 85.6601 13.338C86.7586 14.1925 87.3994 15.3562 87.5825 16.8291Z" fill="#57596C"/>
<path d="M67.5273 21.456V12.2645H71.7056V28.2715H67.694V25.364H67.5371C67.1971 26.3019 66.6315 27.0557 65.8403 27.6254C65.0556 28.1951 64.0977 28.4799 62.9665 28.4799C61.9595 28.4799 61.0735 28.2368 60.3085 27.7505C59.5434 27.2641 58.9451 26.5729 58.5136 25.6766C58.0885 24.7804 57.8727 23.707 57.8662 22.4565V12.2645H62.0445V21.6645C62.051 22.6093 62.2897 23.3562 62.7605 23.905C63.2313 24.4539 63.8623 24.7283 64.6535 24.7283C65.157 24.7283 65.6278 24.6067 66.0659 24.3636C66.504 24.1135 66.8571 23.7452 67.1252 23.2589C67.3998 22.7726 67.5338 22.1716 67.5273 21.456Z" fill="#57596C"/>
<path d="M40.3855 28.2716V6.92889H44.5638V14.9532H44.6913C44.8744 14.5225 45.1392 14.0848 45.4858 13.6402C45.8389 13.1886 46.2966 12.8134 46.8589 12.5147C47.4278 12.209 48.134 12.0561 48.9775 12.0561C50.076 12.0561 51.0895 12.3618 52.018 12.9732C52.9465 13.5776 53.6887 14.4912 54.2445 15.714C54.8003 16.9298 55.0782 18.4548 55.0782 20.2889C55.0782 22.0744 54.8068 23.582 54.2641 24.8117C53.7279 26.0345 52.9956 26.962 52.0671 27.5942C51.1451 28.2195 50.112 28.5321 48.9677 28.5321C48.1569 28.5321 47.467 28.3897 46.8981 28.1048C46.3358 27.82 45.8748 27.4622 45.5152 27.0314C45.1556 26.5937 44.8809 26.1526 44.6913 25.7079H44.5049V28.2716H40.3855ZM44.4755 20.2681C44.4755 21.2199 44.5998 22.0501 44.8482 22.7587C45.0967 23.4674 45.4563 24.0197 45.9271 24.4157C46.3979 24.8048 46.9701 24.9993 47.6436 24.9993C48.3236 24.9993 48.899 24.8013 49.3698 24.4053C49.8406 24.0023 50.197 23.4465 50.4389 22.7379C50.6874 22.0223 50.8116 21.199 50.8116 20.2681C50.8116 19.344 50.6907 18.5312 50.4487 17.8295C50.2068 17.1278 49.8504 16.5789 49.3796 16.1829C48.9088 15.7869 48.3301 15.5889 47.6436 15.5889C46.9635 15.5889 46.3881 15.78 45.9173 16.1621C45.4531 16.5442 45.0967 17.0861 44.8482 17.7878C44.5998 18.4895 44.4755 19.3163 44.4755 20.2681Z" fill="#57596C"/>
<path fill-rule="evenodd" clip-rule="evenodd" d="M16.5266 13.3442L21.0464 17.864L16.7429 22.1675L12.2231 17.6477L16.5266 13.3442ZM11.8926 8.71015L9.05884 5.87643C8.8972 5.71479 8.8972 5.45272 9.05884 5.29108L13.1075 1.24238C13.2692 1.08075 13.5312 1.08074 13.6929 1.24238L27.534 15.0835C29.0696 16.6191 29.0696 19.1088 27.534 20.6444L21.3769 26.8015L24.2106 29.6352C24.3723 29.7969 24.3723 30.059 24.2106 30.2206L20.1619 34.2693C20.0003 34.4309 19.7382 34.4309 19.5766 34.2693L5.73543 20.4281C4.19984 18.8925 4.19984 16.4029 5.73543 14.8673L11.8926 8.71015Z" fill="#57596C"/>
</svg>
