<svg width="176" height="37" viewBox="0 0 176 37" fill="none" xmlns="http://www.w3.org/2000/svg">
<path d="M169.408 11.7438H173.548L168.088 27.6818C166.528 32.2719 163.978 34.2801 160.168 34.057V30.2319C162.298 30.2637 163.378 29.3075 164.098 27.1718L157.948 11.7438H162.178L166.078 22.4541L169.408 11.7438Z" fill="#57596C"/>
<path d="M150.975 11.2975C154.155 11.2975 156.645 13.6564 156.645 17.8959V27.6818H152.775V18.4059C152.775 16.2383 151.545 15.1227 149.805 15.1227C147.915 15.1227 146.505 16.3021 146.505 19.0753V27.6818H142.635V11.7438H146.505V13.5289C147.405 12.0944 148.965 11.2975 150.975 11.2975Z" fill="#57596C"/>
<path d="M135.256 11.7438H139.126V27.6818H135.256V25.8011C134.176 27.2355 132.555 28.128 130.365 28.128C126.375 28.128 123.075 24.4623 123.075 19.7128C123.075 14.9633 126.375 11.2975 130.365 11.2975C132.555 11.2975 134.176 12.1901 135.256 13.6245V11.7438ZM131.085 24.2073C133.485 24.2073 135.256 22.3904 135.256 19.7128C135.256 17.0352 133.485 15.2183 131.085 15.2183C128.715 15.2183 126.945 17.0352 126.945 19.7128C126.945 22.3904 128.715 24.2073 131.085 24.2073Z" fill="#57596C"/>
<path d="M113.806 11.2975C117.826 11.2975 121.126 14.9633 121.126 19.7128C121.126 24.4623 117.826 28.128 113.806 28.128C111.616 28.128 110.026 27.2674 108.946 25.8011V34.0569H105.075V11.7438H108.946V13.6245C110.026 12.1582 111.616 11.2975 113.806 11.2975ZM113.086 24.2073C115.486 24.2073 117.256 22.3904 117.256 19.7128C117.256 17.0352 115.486 15.2183 113.086 15.2183C110.716 15.2183 108.946 17.0352 108.946 19.7128C108.946 22.3904 110.716 24.2073 113.086 24.2073Z" fill="#57596C"/>
<path d="M96.1183 11.2975C99.5384 11.2975 101.788 13.8795 101.788 17.864V27.6818H97.9183V18.1509C97.9183 16.2702 97.0183 15.1227 95.3983 15.1227C93.6882 15.1227 92.6082 16.3339 92.6082 18.7246V27.6818H88.7381V18.1509C88.7381 16.2702 87.8381 15.1227 86.218 15.1227C84.568 15.1227 83.3979 16.3339 83.3979 18.7246V27.6818H79.5278V11.7438H83.3979V13.4332C84.238 12.0944 85.648 11.2975 87.5681 11.2975C89.4281 11.2975 90.8081 12.1263 91.6482 13.5926C92.5782 12.1582 94.0782 11.2975 96.1183 11.2975Z" fill="#57596C"/>
<path d="M68.855 28.128C64.4449 28.128 60.9348 24.4623 60.9348 19.7128C60.9348 14.9633 64.4449 11.2975 68.855 11.2975C73.2652 11.2975 76.8053 14.9633 76.8053 19.7128C76.8053 24.4623 73.2652 28.128 68.855 28.128ZM68.855 24.1117C71.1651 24.1117 72.9352 22.2947 72.9352 19.7128C72.9352 17.1308 71.1651 15.3139 68.855 15.3139C66.575 15.3139 64.8049 17.1308 64.8049 19.7128C64.8049 22.2947 66.575 24.1117 68.855 24.1117Z" fill="#57596C"/>
<path d="M53.1221 28.128C48.562 28.128 45.2019 24.4623 45.2019 19.7128C45.2019 14.9633 48.562 11.2975 53.1221 11.2975C56.0622 11.2975 58.6123 12.9551 59.8423 15.4095L56.5122 17.4815C55.9122 16.1746 54.6222 15.3458 53.0921 15.3458C50.7821 15.3458 49.072 17.1627 49.072 19.7128C49.072 22.231 50.7821 24.0479 53.0921 24.0479C54.6522 24.0479 55.9422 23.251 56.5422 21.9441L59.9023 23.9841C58.6123 26.4705 56.0622 28.128 53.1221 28.128Z" fill="#57596C"/>
<path fill-rule="evenodd" clip-rule="evenodd" d="M12.1738 3.71344C10.8794 3.71344 9.83007 4.76277 9.83007 6.05719V13.3777H2.37452C1.0801 13.3777 0.0307617 14.427 0.0307617 15.7214V33.002C0.0307617 34.2964 1.0801 35.3457 2.37452 35.3457H19.4498C20.7442 35.3457 21.7935 34.2964 21.7935 33.002V25.6815H29.2491C30.5435 25.6815 31.5928 24.6322 31.5928 23.3378V6.05719C31.5928 4.76277 30.5435 3.71344 29.2491 3.71344H12.1738ZM21.7935 25.6815V15.7214C21.7935 14.427 20.7442 13.3777 19.4498 13.3777H9.83007V23.3378C9.83007 24.6322 10.8794 25.6815 12.1738 25.6815H21.7935Z" fill="#57596C"/>
</svg>
