<svg width="174" height="36" viewBox="0 0 174 36" fill="none" xmlns="http://www.w3.org/2000/svg">
<path d="M161.58 18.6293H167.856C167.799 17.1442 166.886 15.6895 164.718 15.6895C162.75 15.6895 161.666 17.2655 161.58 18.6293ZM168.227 22.5088L171.393 23.5089C170.68 26.0851 168.455 28.237 165.003 28.237C161.152 28.237 157.758 25.2971 157.758 20.266C157.758 15.5076 161.067 12.4162 164.661 12.4162C168.997 12.4162 171.593 15.3561 171.593 20.1447C171.593 20.7206 171.535 21.3268 171.535 21.3874H161.495C161.58 23.3574 163.149 24.7819 165.032 24.7819C166.8 24.7819 167.77 23.8423 168.227 22.5088Z" fill="#57596C"/>
<path d="M145.093 23.6302L148.345 22.8725C148.43 24.0545 149.258 25.1456 150.912 25.1456C152.167 25.1456 152.766 24.4485 152.766 23.6605C152.766 22.9937 152.338 22.4481 151.254 22.2057L149.4 21.7511C146.69 21.1146 145.464 19.387 145.464 17.2958C145.464 14.6287 147.689 12.4162 150.712 12.4162C154.706 12.4162 156.047 15.1136 156.218 16.7199L153.052 17.4776C152.937 16.5987 152.338 15.4773 150.741 15.4773C149.743 15.4773 148.944 16.1138 148.944 16.9624C148.944 17.6898 149.457 18.1444 150.228 18.296L152.224 18.7506C154.991 19.3567 156.389 21.1449 156.389 23.3271C156.389 25.7517 154.62 28.237 150.941 28.237C146.719 28.237 145.264 25.3274 145.093 23.6302Z" fill="#57596C"/>
<path d="M142.8 27.7823H139.006V12.8708H142.8V27.7823ZM138.55 7.99121C138.55 6.59704 139.605 5.47565 140.889 5.47565C142.201 5.47565 143.228 6.59704 143.228 7.99121C143.228 9.32477 142.201 10.4462 140.889 10.4462C139.605 10.4462 138.55 9.32477 138.55 7.99121Z" fill="#57596C"/>
<path d="M136.908 12.8102V16.8715C136.48 16.7805 136.109 16.7502 135.767 16.7502C133.827 16.7502 132.144 17.7504 132.144 20.963V27.7823H128.35V12.8708H132.03V15.0833C132.886 13.1133 134.826 12.7496 136.024 12.7496C136.337 12.7496 136.623 12.7799 136.908 12.8102Z" fill="#57596C"/>
<path d="M115.248 33.5409H111.455V12.8708H115.134V14.6893C115.762 13.5376 117.331 12.5374 119.442 12.5374C123.549 12.5374 125.917 15.8713 125.917 20.2963C125.917 24.8122 123.264 28.146 119.299 28.146C117.359 28.146 115.933 27.3277 115.248 26.3276V33.5409ZM122.18 20.3266C122.18 17.6898 120.64 16.1441 118.7 16.1441C116.76 16.1441 115.191 17.6898 115.191 20.3266C115.191 22.9634 116.76 24.5394 118.7 24.5394C120.64 24.5394 122.18 22.9937 122.18 20.3266Z" fill="#57596C"/>
<path d="M109.356 12.8102V16.8715C108.929 16.7805 108.558 16.7502 108.215 16.7502C106.276 16.7502 104.593 17.7504 104.593 20.963V27.7823H100.799V12.8708H104.479V15.0833C105.334 13.1133 107.274 12.7496 108.472 12.7496C108.786 12.7496 109.071 12.7799 109.356 12.8102Z" fill="#57596C"/>
<path d="M88.3695 18.6293H94.645C94.588 17.1442 93.6752 15.6895 91.5073 15.6895C89.539 15.6895 88.4551 17.2655 88.3695 18.6293ZM95.0159 22.5088L98.1822 23.5089C97.469 26.0851 95.2441 28.237 91.7925 28.237C87.9416 28.237 84.5471 25.2971 84.5471 20.266C84.5471 15.5076 87.856 12.4162 91.4502 12.4162C95.786 12.4162 98.3818 15.3561 98.3818 20.1447C98.3818 20.7206 98.3248 21.3268 98.3248 21.3874H88.2839C88.3695 23.3574 89.9384 24.7819 91.821 24.7819C93.5896 24.7819 94.5595 23.8423 95.0159 22.5088Z" fill="#57596C"/>
<path d="M80.2657 8.41553V12.8708H83.0897V16.4472H80.2657V22.6906C80.2657 23.9938 80.8362 24.4182 81.9202 24.4182C82.3766 24.4182 82.8901 24.3575 83.0897 24.2969V27.6308C82.7474 27.7823 82.0628 27.9945 80.9503 27.9945C78.2119 27.9945 76.5004 26.2669 76.5004 23.3877V16.4472H73.9617V12.8708H74.6748C76.1581 12.8708 76.8427 11.8403 76.8427 10.5068V8.41553H80.2657Z" fill="#57596C"/>
<path d="M63.2936 19.2052V27.7824H59.4998V12.8708H63.1795V14.7196C64.0353 13.1739 65.7182 12.4768 67.2301 12.4768C70.7102 12.4768 72.3076 15.1136 72.3076 18.3869V27.7824H68.5137V19.084C68.5137 17.417 67.7435 16.1138 65.9179 16.1138C64.2635 16.1138 63.2936 17.4776 63.2936 19.2052Z" fill="#57596C"/>
<path d="M47.0704 18.6293H53.346C53.2889 17.1442 52.3761 15.6895 50.2082 15.6895C48.24 15.6895 47.156 17.2655 47.0704 18.6293ZM53.7168 22.5088L56.8831 23.5089C56.17 26.0851 53.945 28.237 50.4934 28.237C46.6425 28.237 43.248 25.2971 43.248 20.266C43.248 15.5076 46.557 12.4162 50.1511 12.4162C54.487 12.4162 57.0828 15.3561 57.0828 20.1447C57.0828 20.7206 57.0257 21.3268 57.0257 21.3874H46.9848C47.0704 23.3574 48.6393 24.7819 50.522 24.7819C52.2905 24.7819 53.2604 23.8423 53.7168 22.5088Z" fill="#57596C"/>
<g clip-path="url(#clip0_3897_10686)">
<path fill-rule="evenodd" clip-rule="evenodd" d="M1.19226 24.4674C1.19226 25.2477 1.98261 25.7796 2.70549 25.4857L12.3648 21.5592C12.7791 21.3908 13.0501 20.9881 13.0501 20.5408L13.0501 16.1067C13.0501 15.6595 13.321 15.2568 13.7354 15.0884L23.4294 11.1477C23.8438 10.9793 24.1147 10.5766 24.1147 10.1294L24.1147 4.93086C24.1147 4.32375 23.6226 3.83159 23.0155 3.83159L13.3562 3.83159C12.7491 3.83159 12.257 4.32375 12.257 4.93086L12.257 13.1438C12.257 13.7509 11.7648 14.2431 11.1577 14.2431L2.29153 14.2431C1.68442 14.2431 1.19226 14.7352 1.19226 15.3423L1.19226 24.4674Z" fill="#57596C"/>
<path fill-rule="evenodd" clip-rule="evenodd" d="M32.5023 11.3545C32.5023 10.5741 31.712 10.0423 30.9891 10.3361L21.3298 14.2627C20.9155 14.4311 20.6445 14.8337 20.6445 15.281V19.715C20.6445 20.1623 20.3735 20.565 19.9592 20.7334L10.2651 24.6741C9.85081 24.8425 9.57983 25.2452 9.57983 25.6924V30.8909C9.57983 31.498 10.072 31.9902 10.6791 31.9902H20.3384C20.9455 31.9902 21.4376 31.498 21.4376 30.8909V22.678C21.4376 22.0709 21.9298 21.5788 22.5369 21.5788H31.4031C32.0102 21.5788 32.5023 21.0866 32.5023 20.4795V11.3545Z" fill="#57596C"/>
</g>
<defs>
<clipPath id="clip0_3897_10686">
<rect width="32.487" height="32.487" fill="white" transform="translate(0.60376 2.54889)"/>
</clipPath>
</defs>
</svg>
