<svg width="138" height="52" viewBox="0 0 138 52" fill="none" xmlns="http://www.w3.org/2000/svg">
<path d="M21.5521 35.1708L25.4876 22.4183H29.6879L23.5577 41.3389H19.5465L15.5732 28.8513L11.6377 41.3389H7.70227L1.72338 22.4183H5.8859L9.67001 35.1329L13.4541 22.4183H17.6923L21.5521 35.1708ZM40.0724 21.9264C41.914 21.9264 43.5537 22.3805 44.9917 23.2887C46.4297 24.1716 47.5523 25.3825 48.3596 26.9214C49.1668 28.4351 49.5705 30.1001 49.5705 31.9164C49.5705 32.2192 49.52 32.6985 49.4191 33.3544H34.1313C34.4593 34.868 35.1656 36.079 36.2504 36.9871C37.3604 37.8953 38.7605 38.3494 40.4508 38.3494C41.4851 38.3494 42.469 38.1224 43.4024 37.6683C44.361 37.2142 45.0674 36.6213 45.5215 35.8897L48.6245 37.7061C47.7667 39.0179 46.6315 40.0397 45.2188 40.7713C43.806 41.4776 42.1915 41.8308 40.3751 41.8308C38.3569 41.8308 36.5658 41.4019 35.0017 40.5442C33.4628 39.6865 32.2645 38.5008 31.4068 36.9871C30.5743 35.4735 30.158 33.7706 30.158 31.8786C30.158 30.0118 30.5743 28.3215 31.4068 26.8079C32.2645 25.2942 33.4376 24.1086 34.926 23.2508C36.4396 22.3679 38.1551 21.9264 40.0724 21.9264ZM45.7864 30.2136C45.5846 28.7252 44.9665 27.5521 43.9322 26.6944C42.9231 25.8366 41.6365 25.4078 40.0724 25.4078C38.9876 25.4078 37.9911 25.6348 37.0829 26.0889C36.1747 26.5178 35.4558 27.1106 34.926 27.8674C34.3962 28.599 34.1187 29.3811 34.0935 30.2136H45.7864ZM63.6249 21.9642C65.517 21.9642 67.182 22.4057 68.6199 23.2887C70.0579 24.1464 71.1679 25.3321 71.9499 26.8457C72.7572 28.3594 73.1609 30.0496 73.1609 31.9164C73.1609 33.7833 72.7572 35.4735 71.9499 36.9871C71.1679 38.4756 70.0579 39.6612 68.6199 40.5442C67.182 41.4019 65.517 41.8308 63.6249 41.8308C62.3131 41.8308 61.0517 41.5533 59.8408 40.9983C58.6299 40.4433 57.5829 39.6865 56.7 38.7278V41.3389H52.7267V14.8501H56.7V25.105C57.5829 24.1212 58.6299 23.3517 59.8408 22.7967C61.0517 22.2417 62.3131 21.9642 63.6249 21.9642ZM63.1708 38.0089C64.306 38.0089 65.3278 37.7566 66.2359 37.252C67.1694 36.7223 67.8883 35.9907 68.3929 35.0572C68.9227 34.1238 69.1875 33.0769 69.1875 31.9164C69.1875 30.756 68.9227 29.709 68.3929 28.7756C67.8883 27.8422 67.1694 27.1232 66.2359 26.6187C65.3278 26.0889 64.306 25.824 63.1708 25.824C62.0356 25.824 60.9886 26.0889 60.03 26.6187C59.0966 27.1232 58.3524 27.8422 57.7974 28.7756C57.2676 29.6838 57.0027 30.7181 57.0027 31.8786C57.0027 33.0391 57.2676 34.086 57.7974 35.0194C58.3524 35.9528 59.0966 36.6844 60.03 37.2142C60.9886 37.744 62.0356 38.0089 63.1708 38.0089ZM92.1278 27.2241C93.2378 27.9305 94.1082 28.8387 94.7389 29.9487C95.3695 31.0587 95.6849 32.2696 95.6849 33.5814C95.6849 35.1203 95.256 36.5204 94.3983 37.7818C93.5658 39.0179 92.4179 39.9892 90.9547 40.6956C89.4916 41.4019 87.8644 41.7551 86.0732 41.7551C84.4587 41.7551 82.9577 41.4524 81.5702 40.8469C80.1826 40.2162 79.0474 39.3711 78.1645 38.3116C77.3067 37.2268 76.8148 36.0033 76.6887 34.641L81.0404 34.3004C81.3179 35.3095 81.9233 36.142 82.8568 36.7979C83.8154 37.4538 84.8876 37.7818 86.0732 37.7818C87.6373 37.7818 88.9366 37.3782 89.9709 36.5709C91.0052 35.7384 91.5224 34.6914 91.5224 33.4301C91.5224 32.1435 91.0052 31.0839 89.9709 30.2514C88.9366 29.4189 87.6373 29.0027 86.0732 29.0027H84.711L84.7488 25.5591H86.0732C87.4608 25.5591 88.596 25.2186 89.4789 24.5374C90.3871 23.8311 90.8412 22.9355 90.8412 21.8507C90.8412 20.7912 90.3871 19.9082 89.4789 19.2018C88.5708 18.4955 87.4229 18.1423 86.0354 18.1423C85.0515 18.1423 84.1307 18.3945 83.273 18.8991C82.4153 19.3784 81.8098 19.9839 81.4566 20.7155L77.2941 20.4506C77.4959 19.2901 78.0005 18.2558 78.8078 17.3476C79.6403 16.4142 80.6872 15.6952 81.9486 15.1907C83.2099 14.6609 84.5722 14.396 86.0354 14.396C87.7509 14.396 89.2771 14.724 90.6142 15.3799C91.9765 16.0106 93.036 16.8935 93.7928 18.0288C94.5496 19.164 94.9281 20.438 94.9281 21.8507C94.9281 22.9355 94.6758 23.9446 94.1712 24.878C93.6919 25.7862 93.0108 26.5682 92.1278 27.2241Z" fill="black"/>
<circle cx="121.032" cy="15.0077" r="14.1904" fill="white"/>
<mask id="mask0_2187_20972" style="mask-type:alpha" maskUnits="userSpaceOnUse" x="106" y="0" width="30" height="30">
<circle cx="121.032" cy="15.0077" r="14.1904" fill="#C4C4C4"/>
</mask>
<g mask="url(#mask0_2187_20972)">
<rect x="77.4615" y="-25.9541" width="91.8704" height="80.1245" fill="white"/>
</g>
<path d="M119.381 14.9948L114.709 8.64697H117.984L121.031 12.7857L124.078 8.64697H127.354L122.656 14.9948L127.354 21.3426L124.078 21.368L121.031 17.2292L117.984 21.368L114.709 21.3426L119.381 14.9948Z" fill="#111029"/>
</svg>
